<mxfile host="app.diagrams.net" modified="2023-07-23T20:42:48.016Z" agent="Mozilla/5.0 (Windows NT 10.0; Win64; x64) AppleWebKit/537.36 (KHTML, like Gecko) Chrome/115.0.0.0 Safari/537.36" etag="t5MY7oEgfRwVGpEcj9tR" version="21.6.5" type="device">
  <diagram id="C5RBs43oDa-KdzZeNtuy" name="Page-1">
    <mxGraphModel dx="3695" dy="1500" grid="1" gridSize="10" guides="1" tooltips="1" connect="1" arrows="1" fold="1" page="1" pageScale="1" pageWidth="827" pageHeight="1169" math="0" shadow="0">
      <root>
        <mxCell id="WIyWlLk6GJQsqaUBKTNV-0" />
        <mxCell id="WIyWlLk6GJQsqaUBKTNV-1" parent="WIyWlLk6GJQsqaUBKTNV-0" />
        <mxCell id="nLO9X-y7PH8CgJkoStWJ-20" value="Professor: CharacterBody2D" style="swimlane;fontStyle=2;align=center;verticalAlign=top;childLayout=stackLayout;horizontal=1;startSize=26;horizontalStack=0;resizeParent=1;resizeLast=0;collapsible=1;marginBottom=0;rounded=0;shadow=0;strokeWidth=1;" vertex="1" parent="WIyWlLk6GJQsqaUBKTNV-1">
          <mxGeometry x="160" y="970" width="320" height="460" as="geometry">
            <mxRectangle x="230" y="130" width="160" height="26" as="alternateBounds" />
          </mxGeometry>
        </mxCell>
        <mxCell id="nLO9X-y7PH8CgJkoStWJ-21" value="+ health_component: HealthComponent&#xa;+ velocity_component: VelocityComponent&#xa;+ hitbox_component: HitboxComponent&#xa;+ health_bar: ProgressBar&#xa;- base_health: float&#xa;- base_speed: float&#xa;- base_damage: float&#xa;- exam_paper_difficulty: int" style="text;align=left;verticalAlign=top;spacingLeft=4;spacingRight=4;overflow=hidden;rotatable=0;points=[[0,0.5],[1,0.5]];portConstraint=eastwest;" vertex="1" parent="nLO9X-y7PH8CgJkoStWJ-20">
          <mxGeometry y="26" width="320" height="124" as="geometry" />
        </mxCell>
        <mxCell id="nLO9X-y7PH8CgJkoStWJ-22" value="" style="line;html=1;strokeWidth=1;align=left;verticalAlign=middle;spacingTop=-1;spacingLeft=3;spacingRight=3;rotatable=0;labelPosition=right;points=[];portConstraint=eastwest;" vertex="1" parent="nLO9X-y7PH8CgJkoStWJ-20">
          <mxGeometry y="150" width="320" height="8" as="geometry" />
        </mxCell>
        <mxCell id="nLO9X-y7PH8CgJkoStWJ-23" value="+ _ready(): void&#xa;+ _physics_process(delta: float): void&#xa;+ state_chasing(): void&#xa;+ state_angry_transitioning(): void&#xa;+ enter_state_angry_transitioning(): void&#xa;+ state_choosing_attack(): void&#xa;+ enter_state_choosing_attack(): void&#xa;+ state_throwing_pencil(): void&#xa;+ enter_state_throwing_pencil(): void&#xa;+ state_shooting_paper(): void&#xa;+ enter_state_shooting_paper(): void&#xa;+ leave_state_attacking(): void&#xa;+ state_freezing(): void&#xa;+ enter_state_freezing(): void&#xa;+ on_health_component_damaged(damage: float): void&#xa;+ on_cooldown_timer_timeout(): void&#xa;+ on_frozen(time: float): void&#xa;+ update_health_bar(): void&#xa;+ decelerate_and_move(): void&#xa;+ set_difficulty(difficulty: int): void" style="text;align=left;verticalAlign=top;spacingLeft=4;spacingRight=4;overflow=hidden;rotatable=0;points=[[0,0.5],[1,0.5]];portConstraint=eastwest;" vertex="1" parent="nLO9X-y7PH8CgJkoStWJ-20">
          <mxGeometry y="158" width="320" height="292" as="geometry" />
        </mxCell>
        <mxCell id="iYNlj8gmq-6oQYh_tgKt-25" style="edgeStyle=orthogonalEdgeStyle;rounded=0;orthogonalLoop=1;jettySize=auto;html=1;entryX=0;entryY=0.5;entryDx=0;entryDy=0;" parent="WIyWlLk6GJQsqaUBKTNV-1" target="iYNlj8gmq-6oQYh_tgKt-11" edge="1">
          <mxGeometry relative="1" as="geometry">
            <Array as="points">
              <mxPoint x="1660" y="1340" />
              <mxPoint x="1660" y="1490" />
              <mxPoint x="1751" y="1490" />
            </Array>
            <mxPoint x="480" y="1340" as="sourcePoint" />
          </mxGeometry>
        </mxCell>
        <mxCell id="iYNlj8gmq-6oQYh_tgKt-35" style="edgeStyle=orthogonalEdgeStyle;rounded=0;orthogonalLoop=1;jettySize=auto;html=1;entryX=0;entryY=0.5;entryDx=0;entryDy=0;" parent="WIyWlLk6GJQsqaUBKTNV-1" target="iYNlj8gmq-6oQYh_tgKt-19" edge="1">
          <mxGeometry relative="1" as="geometry">
            <Array as="points">
              <mxPoint x="1660" y="1340" />
              <mxPoint x="1660" y="1575" />
              <mxPoint x="1751" y="1575" />
            </Array>
            <mxPoint x="480" y="1340" as="sourcePoint" />
          </mxGeometry>
        </mxCell>
        <mxCell id="iYNlj8gmq-6oQYh_tgKt-36" style="edgeStyle=orthogonalEdgeStyle;rounded=0;orthogonalLoop=1;jettySize=auto;html=1;entryX=0;entryY=0.5;entryDx=0;entryDy=0;" parent="WIyWlLk6GJQsqaUBKTNV-1" target="iYNlj8gmq-6oQYh_tgKt-20" edge="1">
          <mxGeometry relative="1" as="geometry">
            <Array as="points">
              <mxPoint x="1660" y="1340" />
              <mxPoint x="1660" y="1670" />
              <mxPoint x="1751" y="1670" />
            </Array>
            <mxPoint x="480" y="1340" as="sourcePoint" />
          </mxGeometry>
        </mxCell>
        <mxCell id="iYNlj8gmq-6oQYh_tgKt-38" style="edgeStyle=orthogonalEdgeStyle;rounded=0;orthogonalLoop=1;jettySize=auto;html=1;" parent="WIyWlLk6GJQsqaUBKTNV-1" target="iYNlj8gmq-6oQYh_tgKt-22" edge="1">
          <mxGeometry relative="1" as="geometry">
            <Array as="points">
              <mxPoint x="1660" y="1340" />
              <mxPoint x="1660" y="1850" />
            </Array>
            <mxPoint x="480" y="1340" as="sourcePoint" />
          </mxGeometry>
        </mxCell>
        <mxCell id="iYNlj8gmq-6oQYh_tgKt-39" style="edgeStyle=orthogonalEdgeStyle;rounded=0;orthogonalLoop=1;jettySize=auto;html=1;" parent="WIyWlLk6GJQsqaUBKTNV-1" target="iYNlj8gmq-6oQYh_tgKt-21" edge="1">
          <mxGeometry relative="1" as="geometry">
            <Array as="points">
              <mxPoint x="1660" y="1340" />
              <mxPoint x="1660" y="1770" />
            </Array>
            <mxPoint x="480" y="1340" as="sourcePoint" />
          </mxGeometry>
        </mxCell>
        <mxCell id="iYNlj8gmq-6oQYh_tgKt-77" style="edgeStyle=orthogonalEdgeStyle;rounded=0;orthogonalLoop=1;jettySize=auto;html=1;entryX=0.5;entryY=0;entryDx=0;entryDy=0;" parent="WIyWlLk6GJQsqaUBKTNV-1" target="iYNlj8gmq-6oQYh_tgKt-40" edge="1">
          <mxGeometry relative="1" as="geometry">
            <Array as="points">
              <mxPoint x="310" y="1560" />
              <mxPoint x="-300" y="1560" />
            </Array>
            <mxPoint x="310" y="1430" as="sourcePoint" />
          </mxGeometry>
        </mxCell>
        <mxCell id="iYNlj8gmq-6oQYh_tgKt-78" style="edgeStyle=orthogonalEdgeStyle;rounded=0;orthogonalLoop=1;jettySize=auto;html=1;entryX=0.5;entryY=0;entryDx=0;entryDy=0;" parent="WIyWlLk6GJQsqaUBKTNV-1" target="iYNlj8gmq-6oQYh_tgKt-52" edge="1">
          <mxGeometry relative="1" as="geometry">
            <Array as="points">
              <mxPoint x="310" y="1560" />
              <mxPoint x="50" y="1560" />
            </Array>
            <mxPoint x="310" y="1430" as="sourcePoint" />
          </mxGeometry>
        </mxCell>
        <mxCell id="iYNlj8gmq-6oQYh_tgKt-79" style="edgeStyle=orthogonalEdgeStyle;rounded=0;orthogonalLoop=1;jettySize=auto;html=1;entryX=0.5;entryY=0;entryDx=0;entryDy=0;" parent="WIyWlLk6GJQsqaUBKTNV-1" target="iYNlj8gmq-6oQYh_tgKt-60" edge="1">
          <mxGeometry relative="1" as="geometry">
            <Array as="points">
              <mxPoint x="310" y="1560" />
              <mxPoint x="360" y="1560" />
            </Array>
            <mxPoint x="310" y="1430" as="sourcePoint" />
          </mxGeometry>
        </mxCell>
        <mxCell id="iYNlj8gmq-6oQYh_tgKt-80" style="edgeStyle=orthogonalEdgeStyle;rounded=0;orthogonalLoop=1;jettySize=auto;html=1;entryX=0.5;entryY=0;entryDx=0;entryDy=0;" parent="WIyWlLk6GJQsqaUBKTNV-1" target="iYNlj8gmq-6oQYh_tgKt-68" edge="1">
          <mxGeometry relative="1" as="geometry">
            <Array as="points">
              <mxPoint x="310" y="1560" />
              <mxPoint x="1030" y="1560" />
            </Array>
            <mxPoint x="310" y="1430" as="sourcePoint" />
          </mxGeometry>
        </mxCell>
        <mxCell id="iYNlj8gmq-6oQYh_tgKt-81" style="edgeStyle=orthogonalEdgeStyle;rounded=0;orthogonalLoop=1;jettySize=auto;html=1;entryX=0.5;entryY=0;entryDx=0;entryDy=0;" parent="WIyWlLk6GJQsqaUBKTNV-1" target="iYNlj8gmq-6oQYh_tgKt-44" edge="1">
          <mxGeometry relative="1" as="geometry">
            <Array as="points">
              <mxPoint x="310" y="1560" />
              <mxPoint x="-155" y="1560" />
            </Array>
            <mxPoint x="310" y="1430" as="sourcePoint" />
          </mxGeometry>
        </mxCell>
        <mxCell id="iYNlj8gmq-6oQYh_tgKt-82" style="edgeStyle=orthogonalEdgeStyle;rounded=0;orthogonalLoop=1;jettySize=auto;html=1;entryX=0.5;entryY=0;entryDx=0;entryDy=0;" parent="WIyWlLk6GJQsqaUBKTNV-1" target="iYNlj8gmq-6oQYh_tgKt-56" edge="1">
          <mxGeometry relative="1" as="geometry">
            <Array as="points">
              <mxPoint x="310" y="1560" />
              <mxPoint x="190" y="1560" />
            </Array>
            <mxPoint x="310" y="1430" as="sourcePoint" />
          </mxGeometry>
        </mxCell>
        <mxCell id="iYNlj8gmq-6oQYh_tgKt-83" style="edgeStyle=orthogonalEdgeStyle;rounded=0;orthogonalLoop=1;jettySize=auto;html=1;entryX=0.5;entryY=0;entryDx=0;entryDy=0;" parent="WIyWlLk6GJQsqaUBKTNV-1" target="iYNlj8gmq-6oQYh_tgKt-64" edge="1">
          <mxGeometry relative="1" as="geometry">
            <Array as="points">
              <mxPoint x="310" y="1560" />
              <mxPoint x="870" y="1560" />
            </Array>
            <mxPoint x="310" y="1430" as="sourcePoint" />
          </mxGeometry>
        </mxCell>
        <mxCell id="iYNlj8gmq-6oQYh_tgKt-84" style="edgeStyle=orthogonalEdgeStyle;rounded=0;orthogonalLoop=1;jettySize=auto;html=1;entryX=0.5;entryY=0;entryDx=0;entryDy=0;" parent="WIyWlLk6GJQsqaUBKTNV-1" target="iYNlj8gmq-6oQYh_tgKt-72" edge="1">
          <mxGeometry relative="1" as="geometry">
            <Array as="points">
              <mxPoint x="310" y="1560" />
              <mxPoint x="1210" y="1560" />
            </Array>
            <mxPoint x="310" y="1430" as="sourcePoint" />
          </mxGeometry>
        </mxCell>
        <mxCell id="nLO9X-y7PH8CgJkoStWJ-11" style="edgeStyle=orthogonalEdgeStyle;rounded=0;orthogonalLoop=1;jettySize=auto;html=1;entryX=0.5;entryY=0;entryDx=0;entryDy=0;" edge="1" parent="WIyWlLk6GJQsqaUBKTNV-1" target="nLO9X-y7PH8CgJkoStWJ-7">
          <mxGeometry relative="1" as="geometry">
            <mxPoint x="310" y="1430" as="sourcePoint" />
            <Array as="points">
              <mxPoint x="310" y="1560" />
              <mxPoint x="690" y="1560" />
            </Array>
          </mxGeometry>
        </mxCell>
        <mxCell id="nLO9X-y7PH8CgJkoStWJ-12" style="edgeStyle=orthogonalEdgeStyle;rounded=0;orthogonalLoop=1;jettySize=auto;html=1;entryX=0.5;entryY=0;entryDx=0;entryDy=0;" edge="1" parent="WIyWlLk6GJQsqaUBKTNV-1" target="nLO9X-y7PH8CgJkoStWJ-3">
          <mxGeometry relative="1" as="geometry">
            <mxPoint x="310" y="1430" as="sourcePoint" />
            <Array as="points">
              <mxPoint x="310" y="1560" />
              <mxPoint x="520" y="1560" />
            </Array>
          </mxGeometry>
        </mxCell>
        <mxCell id="nLO9X-y7PH8CgJkoStWJ-17" style="edgeStyle=orthogonalEdgeStyle;rounded=0;orthogonalLoop=1;jettySize=auto;html=1;" edge="1" parent="WIyWlLk6GJQsqaUBKTNV-1" target="nLO9X-y7PH8CgJkoStWJ-13">
          <mxGeometry relative="1" as="geometry">
            <mxPoint x="310" y="1430" as="sourcePoint" />
            <Array as="points">
              <mxPoint x="310" y="1560" />
              <mxPoint x="1435" y="1560" />
            </Array>
          </mxGeometry>
        </mxCell>
        <mxCell id="iYNlj8gmq-6oQYh_tgKt-11" value="&lt;font style=&quot;font-size: 13px;&quot;&gt;&lt;b style=&quot;font-style: normal;&quot;&gt;AnimationPlayer&lt;/b&gt;&lt;/font&gt;" style="whiteSpace=wrap;html=1;verticalAlign=middle;fontStyle=2;startSize=26;rounded=0;shadow=0;strokeWidth=1;" parent="WIyWlLk6GJQsqaUBKTNV-1" vertex="1">
          <mxGeometry x="1751" y="1455" width="140" height="60" as="geometry" />
        </mxCell>
        <mxCell id="iYNlj8gmq-6oQYh_tgKt-19" value="&lt;font style=&quot;font-size: 13px;&quot;&gt;&lt;b style=&quot;font-style: normal;&quot;&gt;AnimationTree&lt;br&gt;&lt;/b&gt;&lt;/font&gt;" style="whiteSpace=wrap;html=1;verticalAlign=middle;fontStyle=2;startSize=26;rounded=0;shadow=0;strokeWidth=1;" parent="WIyWlLk6GJQsqaUBKTNV-1" vertex="1">
          <mxGeometry x="1751" y="1540" width="139" height="60" as="geometry" />
        </mxCell>
        <mxCell id="iYNlj8gmq-6oQYh_tgKt-20" value="&lt;font style=&quot;font-size: 13px;&quot;&gt;&lt;b style=&quot;border-color: var(--border-color); font-style: normal;&quot;&gt;HealthBar: ProgressBar&lt;/b&gt;&lt;b style=&quot;font-style: normal;&quot;&gt;&lt;br&gt;&lt;/b&gt;&lt;/font&gt;" style="whiteSpace=wrap;html=1;verticalAlign=middle;fontStyle=2;startSize=26;rounded=0;shadow=0;strokeWidth=1;" parent="WIyWlLk6GJQsqaUBKTNV-1" vertex="1">
          <mxGeometry x="1751" y="1635" width="200" height="60" as="geometry" />
        </mxCell>
        <mxCell id="iYNlj8gmq-6oQYh_tgKt-21" value="&lt;font style=&quot;font-size: 13px;&quot;&gt;&lt;b style=&quot;border-color: var(--border-color); font-style: normal;&quot;&gt;ShadowSprite: Sprite2D&lt;/b&gt;&lt;b style=&quot;font-style: normal;&quot;&gt;&lt;br&gt;&lt;/b&gt;&lt;/font&gt;" style="whiteSpace=wrap;html=1;verticalAlign=middle;fontStyle=2;startSize=26;rounded=0;shadow=0;strokeWidth=1;" parent="WIyWlLk6GJQsqaUBKTNV-1" vertex="1">
          <mxGeometry x="1751" y="1735" width="200" height="60" as="geometry" />
        </mxCell>
        <mxCell id="iYNlj8gmq-6oQYh_tgKt-22" value="&lt;font style=&quot;font-size: 13px;&quot;&gt;&lt;b style=&quot;border-color: var(--border-color); font-style: normal;&quot;&gt;Sprite2D&lt;/b&gt;&lt;b style=&quot;font-style: normal;&quot;&gt;&lt;br&gt;&lt;/b&gt;&lt;/font&gt;" style="whiteSpace=wrap;html=1;verticalAlign=middle;fontStyle=2;startSize=26;rounded=0;shadow=0;strokeWidth=1;" parent="WIyWlLk6GJQsqaUBKTNV-1" vertex="1">
          <mxGeometry x="1751" y="1815" width="200" height="60" as="geometry" />
        </mxCell>
        <mxCell id="iYNlj8gmq-6oQYh_tgKt-40" value="VelocityComponent: Node" style="swimlane;fontStyle=2;align=center;verticalAlign=top;childLayout=stackLayout;horizontal=1;startSize=26;horizontalStack=0;resizeParent=1;resizeLast=0;collapsible=1;marginBottom=0;rounded=0;shadow=0;strokeWidth=1;" parent="WIyWlLk6GJQsqaUBKTNV-1" vertex="1">
          <mxGeometry x="-420" y="1640" width="240" height="170" as="geometry">
            <mxRectangle x="-1630" y="690" width="160" height="26" as="alternateBounds" />
          </mxGeometry>
        </mxCell>
        <mxCell id="iYNlj8gmq-6oQYh_tgKt-41" value="+ max_speed: float&#xa;+ acceleration: float&#xa;- velocity: Vector2" style="text;align=left;verticalAlign=top;spacingLeft=4;spacingRight=4;overflow=hidden;rotatable=0;points=[[0,0.5],[1,0.5]];portConstraint=eastwest;" parent="iYNlj8gmq-6oQYh_tgKt-40" vertex="1">
          <mxGeometry y="26" width="240" height="54" as="geometry" />
        </mxCell>
        <mxCell id="iYNlj8gmq-6oQYh_tgKt-42" value="" style="line;html=1;strokeWidth=1;align=left;verticalAlign=middle;spacingTop=-1;spacingLeft=3;spacingRight=3;rotatable=0;labelPosition=right;points=[];portConstraint=eastwest;" parent="iYNlj8gmq-6oQYh_tgKt-40" vertex="1">
          <mxGeometry y="80" width="240" height="8" as="geometry" />
        </mxCell>
        <mxCell id="iYNlj8gmq-6oQYh_tgKt-43" value="+ accelerate_to_player(): void&#xa;+ accelerate_in_direction(Vector2): void&#xa;+ decelerate(): void&#xa;+ move(CharacterBody2D): void&#xa;+ knockback(Vector2, float): void" style="text;align=left;verticalAlign=top;spacingLeft=4;spacingRight=4;overflow=hidden;rotatable=0;points=[[0,0.5],[1,0.5]];portConstraint=eastwest;" parent="iYNlj8gmq-6oQYh_tgKt-40" vertex="1">
          <mxGeometry y="88" width="240" height="82" as="geometry" />
        </mxCell>
        <mxCell id="iYNlj8gmq-6oQYh_tgKt-44" value="HealthComponent: Node2D" style="swimlane;fontStyle=2;align=center;verticalAlign=top;childLayout=stackLayout;horizontal=1;startSize=26;horizontalStack=0;resizeParent=1;resizeLast=0;collapsible=1;marginBottom=0;rounded=0;shadow=0;strokeWidth=1;" parent="WIyWlLk6GJQsqaUBKTNV-1" vertex="1">
          <mxGeometry x="-280" y="1840" width="250" height="230" as="geometry">
            <mxRectangle x="-1630" y="690" width="160" height="26" as="alternateBounds" />
          </mxGeometry>
        </mxCell>
        <mxCell id="iYNlj8gmq-6oQYh_tgKt-45" value="+ dead: signal&#xa;+ damaged(float): signal&#xa;+ healed(float): signal&#xa;+ max_health: float&#xa;- current_health: float" style="text;align=left;verticalAlign=top;spacingLeft=4;spacingRight=4;overflow=hidden;rotatable=0;points=[[0,0.5],[1,0.5]];portConstraint=eastwest;" parent="iYNlj8gmq-6oQYh_tgKt-44" vertex="1">
          <mxGeometry y="26" width="250" height="84" as="geometry" />
        </mxCell>
        <mxCell id="iYNlj8gmq-6oQYh_tgKt-46" value="" style="line;html=1;strokeWidth=1;align=left;verticalAlign=middle;spacingTop=-1;spacingLeft=3;spacingRight=3;rotatable=0;labelPosition=right;points=[];portConstraint=eastwest;" parent="iYNlj8gmq-6oQYh_tgKt-44" vertex="1">
          <mxGeometry y="110" width="250" height="8" as="geometry" />
        </mxCell>
        <mxCell id="iYNlj8gmq-6oQYh_tgKt-47" value="+ _ready(): void&#xa;+ damage(float): void&#xa;+ heal(float): void&#xa;+ heal_percent(float): void&#xa;+ increase_max_health(float): void&#xa;+ increase_max_health_percent(float): void&#xa;+ check_death(): void" style="text;align=left;verticalAlign=top;spacingLeft=4;spacingRight=4;overflow=hidden;rotatable=0;points=[[0,0.5],[1,0.5]];portConstraint=eastwest;" parent="iYNlj8gmq-6oQYh_tgKt-44" vertex="1">
          <mxGeometry y="118" width="250" height="112" as="geometry" />
        </mxCell>
        <mxCell id="iYNlj8gmq-6oQYh_tgKt-52" value="ExperienceDropComponent: Node2D" style="swimlane;fontStyle=2;align=center;verticalAlign=top;childLayout=stackLayout;horizontal=1;startSize=26;horizontalStack=0;resizeParent=1;resizeLast=0;collapsible=1;marginBottom=0;rounded=0;shadow=0;strokeWidth=1;" parent="WIyWlLk6GJQsqaUBKTNV-1" vertex="1">
          <mxGeometry x="-70" y="1640" width="240" height="120" as="geometry">
            <mxRectangle x="-1630" y="690" width="160" height="26" as="alternateBounds" />
          </mxGeometry>
        </mxCell>
        <mxCell id="iYNlj8gmq-6oQYh_tgKt-53" value="+ health_component: HealthComponent&#xa;+ experience: int" style="text;align=left;verticalAlign=top;spacingLeft=4;spacingRight=4;overflow=hidden;rotatable=0;points=[[0,0.5],[1,0.5]];portConstraint=eastwest;" parent="iYNlj8gmq-6oQYh_tgKt-52" vertex="1">
          <mxGeometry y="26" width="240" height="44" as="geometry" />
        </mxCell>
        <mxCell id="iYNlj8gmq-6oQYh_tgKt-54" value="" style="line;html=1;strokeWidth=1;align=left;verticalAlign=middle;spacingTop=-1;spacingLeft=3;spacingRight=3;rotatable=0;labelPosition=right;points=[];portConstraint=eastwest;" parent="iYNlj8gmq-6oQYh_tgKt-52" vertex="1">
          <mxGeometry y="70" width="240" height="8" as="geometry" />
        </mxCell>
        <mxCell id="iYNlj8gmq-6oQYh_tgKt-55" value="+ _ready(): void&#xa;+ on_health_component_dead(): void" style="text;align=left;verticalAlign=top;spacingLeft=4;spacingRight=4;overflow=hidden;rotatable=0;points=[[0,0.5],[1,0.5]];portConstraint=eastwest;" parent="iYNlj8gmq-6oQYh_tgKt-52" vertex="1">
          <mxGeometry y="78" width="240" height="42" as="geometry" />
        </mxCell>
        <mxCell id="iYNlj8gmq-6oQYh_tgKt-56" value="CoinDropComponent: Node2D" style="swimlane;fontStyle=2;align=center;verticalAlign=top;childLayout=stackLayout;horizontal=1;startSize=26;horizontalStack=0;resizeParent=1;resizeLast=0;collapsible=1;marginBottom=0;rounded=0;shadow=0;strokeWidth=1;" parent="WIyWlLk6GJQsqaUBKTNV-1" vertex="1">
          <mxGeometry x="70" y="1840" width="240" height="130" as="geometry">
            <mxRectangle x="-1630" y="690" width="160" height="26" as="alternateBounds" />
          </mxGeometry>
        </mxCell>
        <mxCell id="iYNlj8gmq-6oQYh_tgKt-57" value="+ coin_scene: PackedScene&#xa;+ health_component: HealthComponent&#xa;+ experience: int" style="text;align=left;verticalAlign=top;spacingLeft=4;spacingRight=4;overflow=hidden;rotatable=0;points=[[0,0.5],[1,0.5]];portConstraint=eastwest;" parent="iYNlj8gmq-6oQYh_tgKt-56" vertex="1">
          <mxGeometry y="26" width="240" height="54" as="geometry" />
        </mxCell>
        <mxCell id="iYNlj8gmq-6oQYh_tgKt-58" value="" style="line;html=1;strokeWidth=1;align=left;verticalAlign=middle;spacingTop=-1;spacingLeft=3;spacingRight=3;rotatable=0;labelPosition=right;points=[];portConstraint=eastwest;" parent="iYNlj8gmq-6oQYh_tgKt-56" vertex="1">
          <mxGeometry y="80" width="240" height="8" as="geometry" />
        </mxCell>
        <mxCell id="iYNlj8gmq-6oQYh_tgKt-59" value="+ _ready(): void&#xa;+ on_health_component_dead(): void" style="text;align=left;verticalAlign=top;spacingLeft=4;spacingRight=4;overflow=hidden;rotatable=0;points=[[0,0.5],[1,0.5]];portConstraint=eastwest;" parent="iYNlj8gmq-6oQYh_tgKt-56" vertex="1">
          <mxGeometry y="88" width="240" height="42" as="geometry" />
        </mxCell>
        <mxCell id="iYNlj8gmq-6oQYh_tgKt-60" value="HitFlashComponent: Node2D" style="swimlane;fontStyle=2;align=center;verticalAlign=top;childLayout=stackLayout;horizontal=1;startSize=26;horizontalStack=0;resizeParent=1;resizeLast=0;collapsible=1;marginBottom=0;rounded=0;shadow=0;strokeWidth=1;" parent="WIyWlLk6GJQsqaUBKTNV-1" vertex="1">
          <mxGeometry x="240" y="1640" width="240" height="130" as="geometry">
            <mxRectangle x="-1630" y="690" width="160" height="26" as="alternateBounds" />
          </mxGeometry>
        </mxCell>
        <mxCell id="iYNlj8gmq-6oQYh_tgKt-61" value="+ health_component: HealthComponent&#xa;+ sprite: CanvasItem&#xa;+ hit_flash_material: ShaderMaterial" style="text;align=left;verticalAlign=top;spacingLeft=4;spacingRight=4;overflow=hidden;rotatable=0;points=[[0,0.5],[1,0.5]];portConstraint=eastwest;" parent="iYNlj8gmq-6oQYh_tgKt-60" vertex="1">
          <mxGeometry y="26" width="240" height="54" as="geometry" />
        </mxCell>
        <mxCell id="iYNlj8gmq-6oQYh_tgKt-62" value="" style="line;html=1;strokeWidth=1;align=left;verticalAlign=middle;spacingTop=-1;spacingLeft=3;spacingRight=3;rotatable=0;labelPosition=right;points=[];portConstraint=eastwest;" parent="iYNlj8gmq-6oQYh_tgKt-60" vertex="1">
          <mxGeometry y="80" width="240" height="8" as="geometry" />
        </mxCell>
        <mxCell id="iYNlj8gmq-6oQYh_tgKt-63" value="+ _ready(): void&#xa;+ on_health_damaged(float): void" style="text;align=left;verticalAlign=top;spacingLeft=4;spacingRight=4;overflow=hidden;rotatable=0;points=[[0,0.5],[1,0.5]];portConstraint=eastwest;" parent="iYNlj8gmq-6oQYh_tgKt-60" vertex="1">
          <mxGeometry y="88" width="240" height="42" as="geometry" />
        </mxCell>
        <mxCell id="iYNlj8gmq-6oQYh_tgKt-64" value="DamageIndicatorComponent: Node2D" style="swimlane;fontStyle=2;align=center;verticalAlign=top;childLayout=stackLayout;horizontal=1;startSize=26;horizontalStack=0;resizeParent=1;resizeLast=0;collapsible=1;marginBottom=0;rounded=0;shadow=0;strokeWidth=1;" parent="WIyWlLk6GJQsqaUBKTNV-1" vertex="1">
          <mxGeometry x="750" y="1840" width="240" height="120" as="geometry">
            <mxRectangle x="-1630" y="690" width="160" height="26" as="alternateBounds" />
          </mxGeometry>
        </mxCell>
        <mxCell id="iYNlj8gmq-6oQYh_tgKt-65" value="+ damage_indicator_scene: PackedScene&#xa;+ health_component: HealthComponent&#xa;" style="text;align=left;verticalAlign=top;spacingLeft=4;spacingRight=4;overflow=hidden;rotatable=0;points=[[0,0.5],[1,0.5]];portConstraint=eastwest;" parent="iYNlj8gmq-6oQYh_tgKt-64" vertex="1">
          <mxGeometry y="26" width="240" height="44" as="geometry" />
        </mxCell>
        <mxCell id="iYNlj8gmq-6oQYh_tgKt-66" value="" style="line;html=1;strokeWidth=1;align=left;verticalAlign=middle;spacingTop=-1;spacingLeft=3;spacingRight=3;rotatable=0;labelPosition=right;points=[];portConstraint=eastwest;" parent="iYNlj8gmq-6oQYh_tgKt-64" vertex="1">
          <mxGeometry y="70" width="240" height="8" as="geometry" />
        </mxCell>
        <mxCell id="iYNlj8gmq-6oQYh_tgKt-67" value="+ _ready(): void&#xa;+ on_health_damaged(float): void" style="text;align=left;verticalAlign=top;spacingLeft=4;spacingRight=4;overflow=hidden;rotatable=0;points=[[0,0.5],[1,0.5]];portConstraint=eastwest;" parent="iYNlj8gmq-6oQYh_tgKt-64" vertex="1">
          <mxGeometry y="78" width="240" height="42" as="geometry" />
        </mxCell>
        <mxCell id="iYNlj8gmq-6oQYh_tgKt-89" style="edgeStyle=orthogonalEdgeStyle;rounded=0;orthogonalLoop=1;jettySize=auto;html=1;entryX=0.5;entryY=0;entryDx=0;entryDy=0;" parent="WIyWlLk6GJQsqaUBKTNV-1" source="iYNlj8gmq-6oQYh_tgKt-68" target="iYNlj8gmq-6oQYh_tgKt-86" edge="1">
          <mxGeometry relative="1" as="geometry" />
        </mxCell>
        <mxCell id="iYNlj8gmq-6oQYh_tgKt-68" value="HurtboxComponent: Area2D" style="swimlane;fontStyle=2;align=center;verticalAlign=top;childLayout=stackLayout;horizontal=1;startSize=26;horizontalStack=0;resizeParent=1;resizeLast=0;collapsible=1;marginBottom=0;rounded=0;shadow=0;strokeWidth=1;" parent="WIyWlLk6GJQsqaUBKTNV-1" vertex="1">
          <mxGeometry x="910" y="1640" width="240" height="120" as="geometry">
            <mxRectangle x="-1630" y="690" width="160" height="26" as="alternateBounds" />
          </mxGeometry>
        </mxCell>
        <mxCell id="iYNlj8gmq-6oQYh_tgKt-69" value="+ health_component: HealthComponent&#xa;+ velocity_component: VelocityComponent" style="text;align=left;verticalAlign=top;spacingLeft=4;spacingRight=4;overflow=hidden;rotatable=0;points=[[0,0.5],[1,0.5]];portConstraint=eastwest;" parent="iYNlj8gmq-6oQYh_tgKt-68" vertex="1">
          <mxGeometry y="26" width="240" height="44" as="geometry" />
        </mxCell>
        <mxCell id="iYNlj8gmq-6oQYh_tgKt-70" value="" style="line;html=1;strokeWidth=1;align=left;verticalAlign=middle;spacingTop=-1;spacingLeft=3;spacingRight=3;rotatable=0;labelPosition=right;points=[];portConstraint=eastwest;" parent="iYNlj8gmq-6oQYh_tgKt-68" vertex="1">
          <mxGeometry y="70" width="240" height="8" as="geometry" />
        </mxCell>
        <mxCell id="iYNlj8gmq-6oQYh_tgKt-71" value="+ _ready(): void&#xa;+ on_area_entered(Area2D): void" style="text;align=left;verticalAlign=top;spacingLeft=4;spacingRight=4;overflow=hidden;rotatable=0;points=[[0,0.5],[1,0.5]];portConstraint=eastwest;" parent="iYNlj8gmq-6oQYh_tgKt-68" vertex="1">
          <mxGeometry y="78" width="240" height="42" as="geometry" />
        </mxCell>
        <mxCell id="iYNlj8gmq-6oQYh_tgKt-88" style="edgeStyle=orthogonalEdgeStyle;rounded=0;orthogonalLoop=1;jettySize=auto;html=1;entryX=0.5;entryY=0;entryDx=0;entryDy=0;" parent="WIyWlLk6GJQsqaUBKTNV-1" source="iYNlj8gmq-6oQYh_tgKt-72" target="iYNlj8gmq-6oQYh_tgKt-87" edge="1">
          <mxGeometry relative="1" as="geometry" />
        </mxCell>
        <mxCell id="iYNlj8gmq-6oQYh_tgKt-72" value="HitboxComponent: Area2D" style="swimlane;fontStyle=2;align=center;verticalAlign=top;childLayout=stackLayout;horizontal=1;startSize=26;horizontalStack=0;resizeParent=1;resizeLast=0;collapsible=1;marginBottom=0;rounded=0;shadow=0;strokeWidth=1;" parent="WIyWlLk6GJQsqaUBKTNV-1" vertex="1">
          <mxGeometry x="1090" y="1840" width="240" height="120" as="geometry">
            <mxRectangle x="-1630" y="690" width="160" height="26" as="alternateBounds" />
          </mxGeometry>
        </mxCell>
        <mxCell id="iYNlj8gmq-6oQYh_tgKt-73" value="+ hit: signal&#xa;+ damage: float&#xa;+ knockback_force: float" style="text;align=left;verticalAlign=top;spacingLeft=4;spacingRight=4;overflow=hidden;rotatable=0;points=[[0,0.5],[1,0.5]];portConstraint=eastwest;" parent="iYNlj8gmq-6oQYh_tgKt-72" vertex="1">
          <mxGeometry y="26" width="240" height="54" as="geometry" />
        </mxCell>
        <mxCell id="iYNlj8gmq-6oQYh_tgKt-74" value="" style="line;html=1;strokeWidth=1;align=left;verticalAlign=middle;spacingTop=-1;spacingLeft=3;spacingRight=3;rotatable=0;labelPosition=right;points=[];portConstraint=eastwest;" parent="iYNlj8gmq-6oQYh_tgKt-72" vertex="1">
          <mxGeometry y="80" width="240" height="8" as="geometry" />
        </mxCell>
        <mxCell id="iYNlj8gmq-6oQYh_tgKt-86" value="&lt;font style=&quot;font-size: 13px;&quot;&gt;&lt;b style=&quot;font-style: normal;&quot;&gt;CollisionShape2D&lt;br&gt;&lt;/b&gt;&lt;/font&gt;" style="whiteSpace=wrap;html=1;verticalAlign=middle;fontStyle=2;startSize=26;rounded=0;shadow=0;strokeWidth=1;" parent="WIyWlLk6GJQsqaUBKTNV-1" vertex="1">
          <mxGeometry x="960" y="2060" width="140" height="60" as="geometry" />
        </mxCell>
        <mxCell id="iYNlj8gmq-6oQYh_tgKt-87" value="&lt;font style=&quot;font-size: 13px;&quot;&gt;&lt;b style=&quot;font-style: normal;&quot;&gt;CollisionShape2D&lt;br&gt;&lt;/b&gt;&lt;/font&gt;" style="whiteSpace=wrap;html=1;verticalAlign=middle;fontStyle=2;startSize=26;rounded=0;shadow=0;strokeWidth=1;" parent="WIyWlLk6GJQsqaUBKTNV-1" vertex="1">
          <mxGeometry x="1140" y="2120" width="140" height="60" as="geometry" />
        </mxCell>
        <mxCell id="nLO9X-y7PH8CgJkoStWJ-0" value="&lt;font style=&quot;font-size: 13px;&quot;&gt;&lt;b style=&quot;font-style: normal;&quot;&gt;CollisionShape2D&lt;br&gt;&lt;/b&gt;&lt;/font&gt;" style="whiteSpace=wrap;html=1;verticalAlign=middle;fontStyle=2;startSize=26;rounded=0;shadow=0;strokeWidth=1;" vertex="1" parent="WIyWlLk6GJQsqaUBKTNV-1">
          <mxGeometry x="1750" y="1895" width="200" height="60" as="geometry" />
        </mxCell>
        <mxCell id="nLO9X-y7PH8CgJkoStWJ-3" value="FreezableComponent: Node2D" style="swimlane;fontStyle=2;align=center;verticalAlign=top;childLayout=stackLayout;horizontal=1;startSize=26;horizontalStack=0;resizeParent=1;resizeLast=0;collapsible=1;marginBottom=0;rounded=0;shadow=0;strokeWidth=1;" vertex="1" parent="WIyWlLk6GJQsqaUBKTNV-1">
          <mxGeometry x="400" y="1840" width="240" height="140" as="geometry">
            <mxRectangle x="-1630" y="690" width="160" height="26" as="alternateBounds" />
          </mxGeometry>
        </mxCell>
        <mxCell id="nLO9X-y7PH8CgJkoStWJ-4" value="+ hurtbox_component: HurtboxComponent&#xa;+ velocity_component: VelocityComponent&#xa;+ sprite: CanvasItem&#xa;+ tint_material: ShaderMaterial" style="text;align=left;verticalAlign=top;spacingLeft=4;spacingRight=4;overflow=hidden;rotatable=0;points=[[0,0.5],[1,0.5]];portConstraint=eastwest;" vertex="1" parent="nLO9X-y7PH8CgJkoStWJ-3">
          <mxGeometry y="26" width="240" height="64" as="geometry" />
        </mxCell>
        <mxCell id="nLO9X-y7PH8CgJkoStWJ-5" value="" style="line;html=1;strokeWidth=1;align=left;verticalAlign=middle;spacingTop=-1;spacingLeft=3;spacingRight=3;rotatable=0;labelPosition=right;points=[];portConstraint=eastwest;" vertex="1" parent="nLO9X-y7PH8CgJkoStWJ-3">
          <mxGeometry y="90" width="240" height="8" as="geometry" />
        </mxCell>
        <mxCell id="nLO9X-y7PH8CgJkoStWJ-6" value="+ _ready(): void&#xa;+ on_frozen(): void" style="text;align=left;verticalAlign=top;spacingLeft=4;spacingRight=4;overflow=hidden;rotatable=0;points=[[0,0.5],[1,0.5]];portConstraint=eastwest;" vertex="1" parent="nLO9X-y7PH8CgJkoStWJ-3">
          <mxGeometry y="98" width="240" height="42" as="geometry" />
        </mxCell>
        <mxCell id="nLO9X-y7PH8CgJkoStWJ-7" value="BurnableComponent: Node2D" style="swimlane;fontStyle=2;align=center;verticalAlign=top;childLayout=stackLayout;horizontal=1;startSize=26;horizontalStack=0;resizeParent=1;resizeLast=0;collapsible=1;marginBottom=0;rounded=0;shadow=0;strokeWidth=1;" vertex="1" parent="WIyWlLk6GJQsqaUBKTNV-1">
          <mxGeometry x="570" y="1640" width="240" height="140" as="geometry">
            <mxRectangle x="-1630" y="690" width="160" height="26" as="alternateBounds" />
          </mxGeometry>
        </mxCell>
        <mxCell id="nLO9X-y7PH8CgJkoStWJ-8" value="+ health_component: HealthComponent&#xa;+ hurtbox_component: HurtboxComponent&#xa;+ sprite: CanvasItem&#xa;+ tint_material: ShaderMaterial" style="text;align=left;verticalAlign=top;spacingLeft=4;spacingRight=4;overflow=hidden;rotatable=0;points=[[0,0.5],[1,0.5]];portConstraint=eastwest;" vertex="1" parent="nLO9X-y7PH8CgJkoStWJ-7">
          <mxGeometry y="26" width="240" height="64" as="geometry" />
        </mxCell>
        <mxCell id="nLO9X-y7PH8CgJkoStWJ-9" value="" style="line;html=1;strokeWidth=1;align=left;verticalAlign=middle;spacingTop=-1;spacingLeft=3;spacingRight=3;rotatable=0;labelPosition=right;points=[];portConstraint=eastwest;" vertex="1" parent="nLO9X-y7PH8CgJkoStWJ-7">
          <mxGeometry y="90" width="240" height="8" as="geometry" />
        </mxCell>
        <mxCell id="nLO9X-y7PH8CgJkoStWJ-10" value="+ _ready(): void&#xa;+ on_burnt(): void" style="text;align=left;verticalAlign=top;spacingLeft=4;spacingRight=4;overflow=hidden;rotatable=0;points=[[0,0.5],[1,0.5]];portConstraint=eastwest;" vertex="1" parent="nLO9X-y7PH8CgJkoStWJ-7">
          <mxGeometry y="98" width="240" height="42" as="geometry" />
        </mxCell>
        <mxCell id="nLO9X-y7PH8CgJkoStWJ-19" style="edgeStyle=orthogonalEdgeStyle;rounded=0;orthogonalLoop=1;jettySize=auto;html=1;" edge="1" parent="WIyWlLk6GJQsqaUBKTNV-1" source="nLO9X-y7PH8CgJkoStWJ-13" target="nLO9X-y7PH8CgJkoStWJ-18">
          <mxGeometry relative="1" as="geometry" />
        </mxCell>
        <mxCell id="nLO9X-y7PH8CgJkoStWJ-13" value="PathfindComponent: Node2D" style="swimlane;fontStyle=2;align=center;verticalAlign=top;childLayout=stackLayout;horizontal=1;startSize=26;horizontalStack=0;resizeParent=1;resizeLast=0;collapsible=1;marginBottom=0;rounded=0;shadow=0;strokeWidth=1;" vertex="1" parent="WIyWlLk6GJQsqaUBKTNV-1">
          <mxGeometry x="1290" y="1640" width="290" height="140" as="geometry">
            <mxRectangle x="-1630" y="690" width="160" height="26" as="alternateBounds" />
          </mxGeometry>
        </mxCell>
        <mxCell id="nLO9X-y7PH8CgJkoStWJ-14" value="+ velocity_component: VelocityComponent" style="text;align=left;verticalAlign=top;spacingLeft=4;spacingRight=4;overflow=hidden;rotatable=0;points=[[0,0.5],[1,0.5]];portConstraint=eastwest;" vertex="1" parent="nLO9X-y7PH8CgJkoStWJ-13">
          <mxGeometry y="26" width="290" height="34" as="geometry" />
        </mxCell>
        <mxCell id="nLO9X-y7PH8CgJkoStWJ-15" value="" style="line;html=1;strokeWidth=1;align=left;verticalAlign=middle;spacingTop=-1;spacingLeft=3;spacingRight=3;rotatable=0;labelPosition=right;points=[];portConstraint=eastwest;" vertex="1" parent="nLO9X-y7PH8CgJkoStWJ-13">
          <mxGeometry y="60" width="290" height="8" as="geometry" />
        </mxCell>
        <mxCell id="nLO9X-y7PH8CgJkoStWJ-16" value="+ _ready(): void&#xa;+ follow_path(): void&#xa;+ find_navigation_agent(): NavigationAgent2D&#xa;+ get_configuration_warnings(): PackedStringArray" style="text;align=left;verticalAlign=top;spacingLeft=4;spacingRight=4;overflow=hidden;rotatable=0;points=[[0,0.5],[1,0.5]];portConstraint=eastwest;" vertex="1" parent="nLO9X-y7PH8CgJkoStWJ-13">
          <mxGeometry y="68" width="290" height="72" as="geometry" />
        </mxCell>
        <mxCell id="nLO9X-y7PH8CgJkoStWJ-18" value="&lt;font style=&quot;font-size: 13px;&quot;&gt;&lt;b style=&quot;font-style: normal;&quot;&gt;NavigationAgent2D&lt;br&gt;&lt;/b&gt;&lt;/font&gt;" style="whiteSpace=wrap;html=1;verticalAlign=middle;fontStyle=2;startSize=26;rounded=0;shadow=0;strokeWidth=1;" vertex="1" parent="WIyWlLk6GJQsqaUBKTNV-1">
          <mxGeometry x="1365" y="2060" width="140" height="60" as="geometry" />
        </mxCell>
      </root>
    </mxGraphModel>
  </diagram>
</mxfile>
